# xmcd CD database file
#
# Track frame offsets:
#	150
#	13401
#	30922
#	44387
#	56480
#	67297
#	86158
#	99512
#	112437
#	127589
#	140142
#
# Disc length: 2295 seconds
#
# Revision: 3
# Processed by: cddbd v1.5.2PL0 Copyright (c) Steve Scherf et al.
# Submitted via: jetAudio 7
#
DISCID=a008f50b
DTITLE=The Statler Brothers - Christmas Card
DYEAR=1978
DGENRE=Christmas
TTITLE0=I Believe In Santa's Cause
TTITLE1=I'll Be Home For Christmas
TTITLE2=Jingle Bells
TTITLE3=I Never Spend A Christmas That I Don't Think Of You
TTITLE4=White Christmas
TTITLE5=Christmas To Me
TTITLE6=Who Do You Think
TTITLE7=Away In A Manger
TTITLE8=Something You Can't Buy
TTITLE9=The Carols Those Kids Used To Sing
TTITLE10=Silent Night - O Holy Night - The First Noel - It Came Upon A Mid
TTITLE10=night Clear - Silent Night
EXTD=
EXTT0=
EXTT1=
EXTT2=
EXTT3=
EXTT4=
EXTT5=
EXTT6=
EXTT7=
EXTT8=
EXTT9=
EXTT10=
PLAYORDER=
